# xmcd
#
# Track frame offsets: 
#        150
#        17480
#        35632
#        52722
#        72657
#        88562
#        105882
#        125980
#        142890
#        156110
#        173342
#        189445
#        206417
#        225050
#        242147
#        258880
#        275720
#        292332
#        309382
#        326645
#
# Disc length: 4588 seconds
#
# Revision: 3
# Processed by: cddbd v1.5.2PL0 Copyright (c) Steve Scherf et al.
# Submitted via: ExactAudioCopy v0.99pb5
#
DISCID=0f11ea14
DTITLE=Various Artist - Blue Note Ever! (Disc-1)
DYEAR=2004
DGENRE=Jazz
TTITLE0=Moanin' (Art Blakey)
TTITLE1=Autumn Leaves (Cannonball Adderley f. Miles Davis)
TTITLE2=Cleopatra's Dream (Bud Powell)
TTITLE3=Recado Bossa Nova (Hank Mobley)
TTITLE4=Song For My Father (Horace Silver)
TTITLE5=The Sidewinder (Lee Morgan)
TTITLE6=Manha De Carnaval (Dexter Gordon)
TTITLE7=Blue Bossa (Joe Henderson)
TTITLE8='Round Midnight (Thelonious Monk)
TTITLE9=Hymn Of The Orient (Cliffore Brown)
TTITLE10=Yesterdays (Paul Chambers)
TTITLE11=Afrodisia (Kenny Dorham)
TTITLE12=True Blue (Tina Brooks)
TTITLE13=Chittlins Con Carne (Kenny Burrell)
TTITLE14=The Gig (Herbie Nichols)
TTITLE15=Hat And Beard (Eric Dolphy)
TTITLE16=Maiden Voyage (Bobby Hutchrson)
TTITLE17=Malaguena (Pete La Roca)
TTITLE18=European Echoes (Ornette Coleman)
TTITLE19=Passion Dance (McCoy Tyner)
EXTD=YEAR: 2004
EXTT0=
EXTT1=
EXTT2=
EXTT3=
EXTT4=
EXTT5=
EXTT6=
EXTT7=
EXTT8=
EXTT9=
EXTT10=
EXTT11=
EXTT12=
EXTT13=
EXTT14=
EXTT15=
EXTT16=
EXTT17=
EXTT18=
EXTT19=
PLAYORDER=
